# MagicaVoxel @ Ephtracy

# group
o 

# material
mtllib streetlight.mtl
usemtl palette

# normals
vn -1 0 0
vn 1 0 0
vn 0 0 1
vn 0 0 -1
vn 0 -1 0
vn 0 1 0

# texcoords
vt 0.0214844 0.5
vt 0.466797 0.5
vt 0.841797 0.5
vt 0.978516 0.5
vt 0.990234 0.5

# verts
v 0 4.6 -0.2
v 0 4.6 -0.7
v 0 5.7 -0.2
v 0 5.7 -0.7
v 0.1 4.5 -0.2
v 0.1 4.5 -0.7
v 0.1 4.6 -0.1
v 0.1 4.6 -0.2
v 0.1 4.6 -0.7
v 0.1 4.9 -0.1
v 0.1 4.9 -0.2
v 0.1 5 -0.1
v 0.1 5 -0.2
v 0.1 5.3 -0.1
v 0.1 5.3 -0.2
v 0.1 5.4 -0.1
v 0.1 5.4 -0.2
v 0.1 5.7 -0.1
v 0.1 5.7 -0.2
v 0.1 5.7 -0.7
v 0.1 5.8 -0.2
v 0.1 5.8 -0.7
v 0.2 2 -0.3
v 0.2 2 -0.5
v 0.2 4.5 -0.3
v 0.2 4.5 -0.5
v 0.3 2 -0.3
v 0.3 2 -0.5
v 0.3 4.5 -0.3
v 0.3 4.5 -0.5
v 0.4 4.5 -0.2
v 0.4 4.5 -0.7
v 0.4 4.6 -0.1
v 0.4 4.6 -0.2
v 0.4 4.6 -0.7
v 0.4 4.9 -0.1
v 0.4 4.9 -0.2
v 0.4 5 -0.1
v 0.4 5 -0.2
v 0.4 5.3 -0.1
v 0.4 5.3 -0.2
v 0.4 5.4 -0.1
v 0.4 5.4 -0.2
v 0.4 5.7 -0.1
v 0.4 5.7 -0.2
v 0.4 5.7 -0.7
v 0.4 5.8 -0.2
v 0.4 5.8 -0.7
v 0.5 4.6 -0.2
v 0.5 4.6 -0.7
v 0.5 5.7 -0.2
v 0.5 5.7 -0.7
v 0.1 4.6 -0.1
v 0.1 4.9 -0.1
v 0.1 5 -0.1
v 0.1 5.3 -0.1
v 0.1 5.4 -0.1
v 0.1 5.7 -0.1
v 0.4 4.6 -0.1
v 0.4 4.9 -0.1
v 0.4 5 -0.1
v 0.4 5.3 -0.1
v 0.4 5.4 -0.1
v 0.4 5.7 -0.1
v 0 4.6 -0.2
v 0 5.7 -0.2
v 0.1 4.5 -0.2
v 0.1 4.6 -0.2
v 0.1 4.9 -0.2
v 0.1 5 -0.2
v 0.1 5.3 -0.2
v 0.1 5.4 -0.2
v 0.1 5.7 -0.2
v 0.1 5.8 -0.2
v 0.4 4.5 -0.2
v 0.4 4.6 -0.2
v 0.4 4.9 -0.2
v 0.4 5 -0.2
v 0.4 5.3 -0.2
v 0.4 5.4 -0.2
v 0.4 5.7 -0.2
v 0.4 5.8 -0.2
v 0.5 4.6 -0.2
v 0.5 5.7 -0.2
v 0.2 2 -0.3
v 0.2 4.5 -0.3
v 0.3 2 -0.3
v 0.3 4.5 -0.3
v 0.2 2 -0.5
v 0.2 4.5 -0.5
v 0.3 2 -0.5
v 0.3 4.5 -0.5
v 0 4.6 -0.7
v 0 5.7 -0.7
v 0.1 4.5 -0.7
v 0.1 4.6 -0.7
v 0.1 5.7 -0.7
v 0.1 5.8 -0.7
v 0.4 4.5 -0.7
v 0.4 4.6 -0.7
v 0.4 5.7 -0.7
v 0.4 5.8 -0.7
v 0.5 4.6 -0.7
v 0.5 5.7 -0.7
v 0.2 2 -0.3
v 0.3 2 -0.3
v 0.2 2 -0.5
v 0.3 2 -0.5
v 0.1 4.5 -0.2
v 0.4 4.5 -0.2
v 0.2 4.5 -0.3
v 0.3 4.5 -0.3
v 0.2 4.5 -0.5
v 0.3 4.5 -0.5
v 0.1 4.5 -0.7
v 0.4 4.5 -0.7
v 0.1 4.6 -0.1
v 0.4 4.6 -0.1
v 0 4.6 -0.2
v 0.1 4.6 -0.2
v 0.4 4.6 -0.2
v 0.5 4.6 -0.2
v 0 4.6 -0.7
v 0.1 4.6 -0.7
v 0.4 4.6 -0.7
v 0.5 4.6 -0.7
v 0.1 5 -0.1
v 0.4 5 -0.1
v 0.1 5 -0.2
v 0.4 5 -0.2
v 0.1 5.4 -0.1
v 0.4 5.4 -0.1
v 0.1 5.4 -0.2
v 0.4 5.4 -0.2
v 0.1 4.9 -0.1
v 0.4 4.9 -0.1
v 0.1 4.9 -0.2
v 0.4 4.9 -0.2
v 0.1 5.3 -0.1
v 0.4 5.3 -0.1
v 0.1 5.3 -0.2
v 0.4 5.3 -0.2
v 0.1 5.7 -0.1
v 0.4 5.7 -0.1
v 0 5.7 -0.2
v 0.1 5.7 -0.2
v 0.4 5.7 -0.2
v 0.5 5.7 -0.2
v 0 5.7 -0.7
v 0.1 5.7 -0.7
v 0.4 5.7 -0.7
v 0.5 5.7 -0.7
v 0.1 5.8 -0.2
v 0.4 5.8 -0.2
v 0.1 5.8 -0.7
v 0.4 5.8 -0.7

# faces
f 3/5/1 2/5/1 1/5/1
f 4/5/1 2/5/1 3/5/1
f 8/5/1 6/5/1 5/5/1
f 9/5/1 6/5/1 8/5/1
f 10/2/1 8/2/1 7/2/1
f 11/2/1 8/2/1 10/2/1
f 14/1/1 13/1/1 12/1/1
f 15/1/1 13/1/1 14/1/1
f 18/3/1 17/3/1 16/3/1
f 19/3/1 17/3/1 18/3/1
f 21/5/1 20/5/1 19/5/1
f 22/5/1 20/5/1 21/5/1
f 25/4/1 24/4/1 23/4/1
f 26/4/1 24/4/1 25/4/1
f 27/4/2 28/4/2 29/4/2
f 29/4/2 28/4/2 30/4/2
f 31/5/2 32/5/2 34/5/2
f 34/5/2 32/5/2 35/5/2
f 33/2/2 34/2/2 36/2/2
f 36/2/2 34/2/2 37/2/2
f 38/1/2 39/1/2 40/1/2
f 40/1/2 39/1/2 41/1/2
f 42/3/2 43/3/2 44/3/2
f 44/3/2 43/3/2 45/3/2
f 45/5/2 46/5/2 47/5/2
f 47/5/2 46/5/2 48/5/2
f 49/5/2 50/5/2 51/5/2
f 51/5/2 50/5/2 52/5/2
f 59/2/3 54/2/3 53/2/3
f 60/2/3 54/2/3 59/2/3
f 61/1/3 56/1/3 55/1/3
f 62/1/3 56/1/3 61/1/3
f 63/3/3 58/3/3 57/3/3
f 64/3/3 58/3/3 63/3/3
f 68/5/3 66/5/3 65/5/3
f 69/5/3 66/5/3 68/5/3
f 70/5/3 66/5/3 69/5/3
f 71/5/3 66/5/3 70/5/3
f 72/5/3 66/5/3 71/5/3
f 73/5/3 66/5/3 72/5/3
f 75/5/3 68/5/3 67/5/3
f 76/5/3 68/5/3 75/5/3
f 77/5/3 70/5/3 69/5/3
f 78/5/3 70/5/3 77/5/3
f 79/5/3 72/5/3 71/5/3
f 80/5/3 72/5/3 79/5/3
f 81/5/3 74/5/3 73/5/3
f 82/5/3 74/5/3 81/5/3
f 83/5/3 80/5/3 79/5/3
f 83/5/3 78/5/3 77/5/3
f 83/5/3 81/5/3 80/5/3
f 83/5/3 79/5/3 78/5/3
f 83/5/3 77/5/3 76/5/3
f 84/5/3 81/5/3 83/5/3
f 87/4/3 86/4/3 85/4/3
f 88/4/3 86/4/3 87/4/3
f 89/4/4 90/4/4 91/4/4
f 91/4/4 90/4/4 92/4/4
f 93/5/4 94/5/4 96/5/4
f 96/5/4 94/5/4 97/5/4
f 95/5/4 96/5/4 99/5/4
f 97/5/4 98/5/4 99/5/4
f 96/5/4 97/5/4 99/5/4
f 99/5/4 98/5/4 100/5/4
f 100/5/4 98/5/4 101/5/4
f 101/5/4 98/5/4 102/5/4
f 100/5/4 101/5/4 103/5/4
f 103/5/4 101/5/4 104/5/4
f 107/4/5 106/4/5 105/4/5
f 108/4/5 106/4/5 107/4/5
f 111/5/5 110/5/5 109/5/5
f 112/5/5 110/5/5 111/5/5
f 113/5/5 111/5/5 109/5/5
f 114/5/5 110/5/5 112/5/5
f 115/5/5 113/5/5 109/5/5
f 115/5/5 114/5/5 113/5/5
f 116/5/5 110/5/5 114/5/5
f 116/5/5 114/5/5 115/5/5
f 120/2/5 118/2/5 117/2/5
f 121/2/5 118/2/5 120/2/5
f 123/5/5 120/5/5 119/5/5
f 124/5/5 120/5/5 123/5/5
f 125/5/5 122/5/5 121/5/5
f 126/5/5 122/5/5 125/5/5
f 129/1/5 128/1/5 127/1/5
f 130/1/5 128/1/5 129/1/5
f 133/3/5 132/3/5 131/3/5
f 134/3/5 132/3/5 133/3/5
f 135/2/6 136/2/6 137/2/6
f 137/2/6 136/2/6 138/2/6
f 139/1/6 140/1/6 141/1/6
f 141/1/6 140/1/6 142/1/6
f 143/3/6 144/3/6 146/3/6
f 146/3/6 144/3/6 147/3/6
f 145/5/6 146/5/6 149/5/6
f 149/5/6 146/5/6 150/5/6
f 147/5/6 148/5/6 151/5/6
f 151/5/6 148/5/6 152/5/6
f 153/5/6 154/5/6 155/5/6
f 155/5/6 154/5/6 156/5/6
