# MagicaVoxel @ Ephtracy

# group
o 

# material
mtllib pharol.mtl
usemtl palette

# normals
vn -1 0 0
vn 1 0 0
vn 0 0 1
vn 0 0 -1
vn 0 -1 0
vn 0 1 0

# texcoords
vt 0.00195313 0.5
vt 0.0136719 0.5
vt 0.978516 0.5
vt 0.994141 0.5

# verts
v 0.1 5 -0.2
v 0.1 5 -0.6
v 0.1 5.1 -0.2
v 0.1 5.1 -0.3
v 0.1 5.1 -0.5
v 0.1 5.1 -0.6
v 0.1 5.6 -0.2
v 0.1 5.6 -0.3
v 0.1 5.6 -0.5
v 0.1 5.6 -0.6
v 0.1 5.7 -0.2
v 0.1 5.7 -0.6
v 0.2 2 -0.3
v 0.2 2 -0.5
v 0.2 5 -0.3
v 0.2 5 -0.5
v 0.2 5.7 -0.3
v 0.2 5.7 -0.5
v 0.2 5.8 -0.3
v 0.2 5.8 -0.5
v 0.3 2 -0.3
v 0.3 2 -0.5
v 0.3 5 -0.3
v 0.3 5 -0.5
v 0.3 5.7 -0.3
v 0.3 5.7 -0.5
v 0.3 5.8 -0.3
v 0.3 5.8 -0.5
v 0.4 5 -0.2
v 0.4 5 -0.6
v 0.4 5.1 -0.2
v 0.4 5.1 -0.3
v 0.4 5.1 -0.5
v 0.4 5.1 -0.6
v 0.4 5.6 -0.2
v 0.4 5.6 -0.3
v 0.4 5.6 -0.5
v 0.4 5.6 -0.6
v 0.4 5.7 -0.2
v 0.4 5.7 -0.6
v 0.1 5 -0.2
v 0.1 5.1 -0.2
v 0.1 5.6 -0.2
v 0.1 5.7 -0.2
v 0.2 5.1 -0.2
v 0.2 5.6 -0.2
v 0.3 5.1 -0.2
v 0.3 5.6 -0.2
v 0.4 5 -0.2
v 0.4 5.1 -0.2
v 0.4 5.6 -0.2
v 0.4 5.7 -0.2
v 0.2 2 -0.3
v 0.2 5 -0.3
v 0.2 5.7 -0.3
v 0.2 5.8 -0.3
v 0.3 2 -0.3
v 0.3 5 -0.3
v 0.3 5.7 -0.3
v 0.3 5.8 -0.3
v 0.2 2 -0.5
v 0.2 5 -0.5
v 0.2 5.7 -0.5
v 0.2 5.8 -0.5
v 0.3 2 -0.5
v 0.3 5 -0.5
v 0.3 5.7 -0.5
v 0.3 5.8 -0.5
v 0.1 5 -0.6
v 0.1 5.1 -0.6
v 0.1 5.6 -0.6
v 0.1 5.7 -0.6
v 0.2 5.1 -0.6
v 0.2 5.6 -0.6
v 0.3 5.1 -0.6
v 0.3 5.6 -0.6
v 0.4 5 -0.6
v 0.4 5.1 -0.6
v 0.4 5.6 -0.6
v 0.4 5.7 -0.6
v 0.2 2 -0.3
v 0.3 2 -0.3
v 0.2 2 -0.5
v 0.3 2 -0.5
v 0.1 5 -0.2
v 0.4 5 -0.2
v 0.2 5 -0.3
v 0.3 5 -0.3
v 0.2 5 -0.5
v 0.3 5 -0.5
v 0.1 5 -0.6
v 0.4 5 -0.6
v 0.1 5.7 -0.2
v 0.4 5.7 -0.2
v 0.2 5.7 -0.3
v 0.3 5.7 -0.3
v 0.2 5.7 -0.5
v 0.3 5.7 -0.5
v 0.1 5.7 -0.6
v 0.4 5.7 -0.6
v 0.2 5.8 -0.3
v 0.3 5.8 -0.3
v 0.2 5.8 -0.5
v 0.3 5.8 -0.5

# faces
f 3/4/1 2/4/1 1/4/1
f 4/4/1 2/4/1 3/4/1
f 5/4/1 2/4/1 4/4/1
f 6/4/1 2/4/1 5/4/1
f 7/1/1 4/1/1 3/1/1
f 8/2/1 5/2/1 4/2/1
f 8/1/1 4/1/1 7/1/1
f 9/1/1 6/1/1 5/1/1
f 9/2/1 5/2/1 8/2/1
f 10/1/1 6/1/1 9/1/1
f 11/4/1 8/4/1 7/4/1
f 11/4/1 9/4/1 8/4/1
f 11/4/1 10/4/1 9/4/1
f 12/4/1 10/4/1 11/4/1
f 15/3/1 14/3/1 13/3/1
f 16/3/1 14/3/1 15/3/1
f 19/3/1 18/3/1 17/3/1
f 20/3/1 18/3/1 19/3/1
f 21/3/2 22/3/2 23/3/2
f 23/3/2 22/3/2 24/3/2
f 25/3/2 26/3/2 27/3/2
f 27/3/2 26/3/2 28/3/2
f 29/4/2 30/4/2 31/4/2
f 31/4/2 30/4/2 32/4/2
f 32/4/2 30/4/2 33/4/2
f 33/4/2 30/4/2 34/4/2
f 31/1/2 32/1/2 35/1/2
f 32/2/2 33/2/2 36/2/2
f 35/1/2 32/1/2 36/1/2
f 33/1/2 34/1/2 37/1/2
f 36/2/2 33/2/2 37/2/2
f 37/1/2 34/1/2 38/1/2
f 35/4/2 36/4/2 39/4/2
f 36/4/2 37/4/2 39/4/2
f 37/4/2 38/4/2 39/4/2
f 39/4/2 38/4/2 40/4/2
f 45/4/3 42/4/3 41/4/3
f 45/1/3 43/1/3 42/1/3
f 46/4/3 44/4/3 43/4/3
f 46/1/3 43/1/3 45/1/3
f 47/4/3 45/4/3 41/4/3
f 47/2/3 46/2/3 45/2/3
f 48/4/3 44/4/3 46/4/3
f 48/2/3 46/2/3 47/2/3
f 49/4/3 47/4/3 41/4/3
f 50/1/3 48/1/3 47/1/3
f 50/4/3 47/4/3 49/4/3
f 51/4/3 44/4/3 48/4/3
f 51/1/3 48/1/3 50/1/3
f 52/4/3 44/4/3 51/4/3
f 57/3/3 54/3/3 53/3/3
f 58/3/3 54/3/3 57/3/3
f 59/3/3 56/3/3 55/3/3
f 60/3/3 56/3/3 59/3/3
f 61/3/4 62/3/4 65/3/4
f 65/3/4 62/3/4 66/3/4
f 63/3/4 64/3/4 67/3/4
f 67/3/4 64/3/4 68/3/4
f 69/4/4 70/4/4 73/4/4
f 70/1/4 71/1/4 73/1/4
f 71/4/4 72/4/4 74/4/4
f 73/1/4 71/1/4 74/1/4
f 69/4/4 73/4/4 75/4/4
f 73/2/4 74/2/4 75/2/4
f 74/4/4 72/4/4 76/4/4
f 75/2/4 74/2/4 76/2/4
f 69/4/4 75/4/4 77/4/4
f 75/1/4 76/1/4 78/1/4
f 77/4/4 75/4/4 78/4/4
f 76/4/4 72/4/4 79/4/4
f 78/1/4 76/1/4 79/1/4
f 79/4/4 72/4/4 80/4/4
f 83/3/5 82/3/5 81/3/5
f 84/3/5 82/3/5 83/3/5
f 87/4/5 86/4/5 85/4/5
f 88/4/5 86/4/5 87/4/5
f 89/4/5 87/4/5 85/4/5
f 90/4/5 86/4/5 88/4/5
f 91/4/5 89/4/5 85/4/5
f 91/4/5 90/4/5 89/4/5
f 92/4/5 86/4/5 90/4/5
f 92/4/5 90/4/5 91/4/5
f 93/4/6 94/4/6 95/4/6
f 95/4/6 94/4/6 96/4/6
f 93/4/6 95/4/6 97/4/6
f 96/4/6 94/4/6 98/4/6
f 93/4/6 97/4/6 99/4/6
f 97/4/6 98/4/6 99/4/6
f 98/4/6 94/4/6 100/4/6
f 99/4/6 98/4/6 100/4/6
f 101/3/6 102/3/6 103/3/6
f 103/3/6 102/3/6 104/3/6
